<svg fill="#000000" xmlns="http://www.w3.org/2000/svg" viewBox="0 0 26 26" width="26px" height="26px"><path d="M 1 2.9921875 L 7 12.996094 L 1 23 L 3 23 L 5 23 L 11 12.996094 L 5 2.9921875 L 3 2.9921875 L 1 2.9921875 z M 7 2.9921875 L 13 12.996094 L 7 23 L 9 23 L 11 23 L 15 16.330078 L 19 23 L 21 23 L 23 23 L 17 12.996094 L 11 2.9921875 L 9 2.9921875 L 7 2.9921875 z M 16.935547 9 L 18.714844 11.96875 L 18.734375 12 L 25 12 L 25 9 L 16.935547 9 z M 19.933594 14 L 21.732422 17 L 25 17 L 25 14 L 19.933594 14 z"/></svg>